<?xml version="1.0" encoding="UTF-8" standalone="no"?>
<!DOCTYPE svg PUBLIC "-//W3C//DTD SVG 1.1//EN"
 "http://www.w3.org/Graphics/SVG/1.1/DTD/svg11.dtd">
<!-- Generated by graphviz version 2.40.1 (20161225.0304)
 -->
<!-- Title: G Pages: 1 -->
<svg width="514pt" height="112pt"
 viewBox="0.00 0.00 514.35 112.00" xmlns="http://www.w3.org/2000/svg" xmlns:xlink="http://www.w3.org/1999/xlink">
<g id="graph0" class="graph" transform="scale(1 1) rotate(0) translate(4 108)">
<title>G</title>
<polygon fill="#ffffff" stroke="transparent" points="-4,4 -4,-108 510.351,-108 510.351,4 -4,4"/>
<!-- A0 -->
<g id="node1" class="node">
<title>A0</title>
<polygon fill="none" stroke="#000000" points="0,-45 0,-77 150,-77 150,-45 0,-45"/>
<text text-anchor="start" x="38.323" y="-58" font-family="Helvetica,sans-Serif" font-size="10.00" fill="#000000">urlopen_pipeline</text>
<polygon fill="none" stroke="#000000" points="0,-13 0,-45 150,-45 150,-13 0,-13"/>
<text text-anchor="start" x="9.5625" y="-26" font-family="Helvetica,sans-Serif" font-size="10.00" fill="#000000">url=https://picsum.photos/256</text>
</g>
<!-- A1 -->
<g id="node2" class="node">
<title>A1</title>
<polygon fill="none" stroke="#000000" points="315.9807,-90 205.3703,-90 205.3703,-54 315.9807,-54 315.9807,-90"/>
<text text-anchor="middle" x="260.6755" y="-69" font-family="Helvetica,sans-Serif" font-size="10.00" fill="#000000">status_ok_pipeline</text>
</g>
<!-- A0&#45;&gt;A1 -->
<g id="edge1" class="edge">
<title>A0&#45;&gt;A1</title>
<path fill="none" stroke="#000000" d="M150.2537,-55.943C165.2005,-58.1165 180.7785,-60.3818 195.3605,-62.5022"/>
<polygon fill="#000000" stroke="#000000" points="205.2766,-63.9442 194.7331,-66.9582 200.3287,-63.2246 195.3807,-62.5051 195.3807,-62.5051 195.3807,-62.5051 200.3287,-63.2246 196.0283,-58.0519 205.2766,-63.9442 205.2766,-63.9442"/>
</g>
<!-- A2 -->
<g id="node3" class="node">
<title>A2</title>
<polygon fill="none" stroke="#000000" points="321.527,-36 199.824,-36 199.824,0 321.527,0 321.527,-36"/>
<text text-anchor="middle" x="260.6755" y="-15" font-family="Helvetica,sans-Serif" font-size="10.00" fill="#000000">status_error_pipeline</text>
</g>
<!-- A0&#45;&gt;A2 -->
<g id="edge2" class="edge">
<title>A0&#45;&gt;A2</title>
<path fill="none" stroke="#000000" d="M150.2537,-34.057C163.2622,-32.1654 176.7489,-30.2042 189.641,-28.3295"/>
<polygon fill="#000000" stroke="#000000" points="199.8322,-26.8475 190.5839,-32.7398 194.8842,-27.5671 189.9363,-28.2866 189.9363,-28.2866 189.9363,-28.2866 194.8842,-27.5671 189.2887,-23.8335 199.8322,-26.8475 199.8322,-26.8475"/>
</g>
<!-- A3 -->
<g id="node4" class="node">
<title>A3</title>
<polygon fill="none" stroke="#000000" points="371.851,-72 371.851,-104 506.851,-104 506.851,-72 371.851,-72"/>
<text text-anchor="start" x="381.5575" y="-85" font-family="Helvetica,sans-Serif" font-size="10.00" fill="#000000">download_image_pipeline</text>
<polygon fill="none" stroke="#000000" points="371.851,-40 371.851,-72 506.851,-72 506.851,-40 371.851,-40"/>
<text text-anchor="start" x="388.0765" y="-53" font-family="Helvetica,sans-Serif" font-size="10.00" fill="#000000">path=output/image.png</text>
</g>
<!-- A1&#45;&gt;A3 -->
<g id="edge3" class="edge">
<title>A1&#45;&gt;A3</title>
<path fill="none" stroke="#000000" d="M316.0747,-72C330.2679,-72 345.7991,-72 360.8969,-72"/>
<polygon fill="#000000" stroke="#000000" points="371.2583,-72 361.2583,-76.5001 366.2583,-72 361.2583,-72.0001 361.2583,-72.0001 361.2583,-72.0001 366.2583,-72 361.2582,-67.5001 371.2583,-72 371.2583,-72"/>
</g>
</g>
</svg>
